# xmcd
#
# Track frame offsets:
#	150
#	19287
#	44810
#
# Disc length: 852 seconds
#
# Revision: 0
# Processed by: cddbd v1.5.2PL0 Copyright (c) Steve Scherf et al.
# Submitted via: audiograbber 1.83.01
#
DISCID=25035203
DTITLE=Rappin' 4 Tay - A Lil' Some'em Some'em
DYEAR=1900
DGENRE=
TTITLE0=A Lil' Some'em Some'em [Radio Version]
TTITLE1=A Lil' Some'em Some'em [Album Version]
TTITLE2=Off Parole [Album Version]
EXTD=
EXTT0=
EXTT1=
EXTT2=
PLAYORDER=
